<mxfile host="Electron" agent="Mozilla/5.0 (Windows NT 10.0; Win64; x64) AppleWebKit/537.36 (KHTML, like Gecko) draw.io/28.1.2 Chrome/138.0.7204.243 Electron/37.4.0 Safari/537.36" version="28.1.2">
  <diagram name="Page-1" id="rCsqLSpzX1514vt3zPsd">
    <mxGraphModel dx="1226" dy="746" grid="1" gridSize="10" guides="1" tooltips="1" connect="1" arrows="1" fold="1" page="1" pageScale="1" pageWidth="1169" pageHeight="827" math="0" shadow="0">
      <root>
        <mxCell id="0" />
        <mxCell id="1" parent="0" />
        <mxCell id="WcDR3ubEREY4m4XLEgyw-12" style="edgeStyle=orthogonalEdgeStyle;rounded=0;orthogonalLoop=1;jettySize=auto;html=1;exitX=1;exitY=0.5;exitDx=0;exitDy=0;entryX=0;entryY=0.5;entryDx=0;entryDy=0;curved=1;" edge="1" parent="1" source="WcDR3ubEREY4m4XLEgyw-1" target="WcDR3ubEREY4m4XLEgyw-6">
          <mxGeometry relative="1" as="geometry" />
        </mxCell>
        <mxCell id="WcDR3ubEREY4m4XLEgyw-26" value="b" style="edgeLabel;html=1;align=center;verticalAlign=middle;resizable=0;points=[];" vertex="1" connectable="0" parent="WcDR3ubEREY4m4XLEgyw-12">
          <mxGeometry x="0.2052" y="5" relative="1" as="geometry">
            <mxPoint as="offset" />
          </mxGeometry>
        </mxCell>
        <mxCell id="WcDR3ubEREY4m4XLEgyw-22" style="edgeStyle=orthogonalEdgeStyle;rounded=0;orthogonalLoop=1;jettySize=auto;html=1;entryX=0;entryY=0.5;entryDx=0;entryDy=0;curved=1;" edge="1" parent="1" source="WcDR3ubEREY4m4XLEgyw-1" target="WcDR3ubEREY4m4XLEgyw-20">
          <mxGeometry relative="1" as="geometry">
            <mxPoint x="420" y="240" as="targetPoint" />
          </mxGeometry>
        </mxCell>
        <mxCell id="WcDR3ubEREY4m4XLEgyw-25" value="a" style="edgeLabel;html=1;align=center;verticalAlign=middle;resizable=0;points=[];" vertex="1" connectable="0" parent="WcDR3ubEREY4m4XLEgyw-22">
          <mxGeometry x="0.1021" y="1" relative="1" as="geometry">
            <mxPoint as="offset" />
          </mxGeometry>
        </mxCell>
        <mxCell id="WcDR3ubEREY4m4XLEgyw-1" value="S&lt;sub&gt;0&lt;/sub&gt;" style="ellipse;whiteSpace=wrap;html=1;aspect=fixed;" vertex="1" parent="1">
          <mxGeometry x="120" y="320" width="160" height="160" as="geometry" />
        </mxCell>
        <mxCell id="WcDR3ubEREY4m4XLEgyw-7" value="" style="group" vertex="1" connectable="0" parent="1">
          <mxGeometry x="440" y="480" width="160" height="160" as="geometry" />
        </mxCell>
        <mxCell id="WcDR3ubEREY4m4XLEgyw-6" value="" style="ellipse;whiteSpace=wrap;html=1;aspect=fixed;fillColor=default;gradientColor=none;" vertex="1" parent="WcDR3ubEREY4m4XLEgyw-7">
          <mxGeometry width="160" height="160" as="geometry" />
        </mxCell>
        <mxCell id="WcDR3ubEREY4m4XLEgyw-2" value="S&lt;sub&gt;2&lt;/sub&gt;" style="ellipse;whiteSpace=wrap;html=1;aspect=fixed;fillColor=default;gradientColor=none;" vertex="1" parent="WcDR3ubEREY4m4XLEgyw-7">
          <mxGeometry x="8.88888888888889" y="8.88888888888889" width="142.22222222222223" height="142.22222222222223" as="geometry" />
        </mxCell>
        <mxCell id="WcDR3ubEREY4m4XLEgyw-29" style="edgeStyle=orthogonalEdgeStyle;rounded=0;orthogonalLoop=1;jettySize=auto;html=1;exitX=0.5;exitY=1;exitDx=0;exitDy=0;entryX=1;entryY=0.5;entryDx=0;entryDy=0;curved=1;" edge="1" parent="WcDR3ubEREY4m4XLEgyw-7" source="WcDR3ubEREY4m4XLEgyw-6" target="WcDR3ubEREY4m4XLEgyw-6">
          <mxGeometry relative="1" as="geometry">
            <Array as="points">
              <mxPoint x="80" y="210" />
              <mxPoint x="220" y="210" />
              <mxPoint x="220" y="80" />
            </Array>
          </mxGeometry>
        </mxCell>
        <mxCell id="WcDR3ubEREY4m4XLEgyw-30" value="b" style="edgeLabel;html=1;align=center;verticalAlign=middle;resizable=0;points=[];" vertex="1" connectable="0" parent="WcDR3ubEREY4m4XLEgyw-29">
          <mxGeometry x="-0.1114" y="10" relative="1" as="geometry">
            <mxPoint as="offset" />
          </mxGeometry>
        </mxCell>
        <mxCell id="WcDR3ubEREY4m4XLEgyw-19" value="" style="group" vertex="1" connectable="0" parent="1">
          <mxGeometry x="440" y="160" width="160" height="160" as="geometry" />
        </mxCell>
        <mxCell id="WcDR3ubEREY4m4XLEgyw-20" value="" style="ellipse;whiteSpace=wrap;html=1;aspect=fixed;fillColor=default;gradientColor=none;" vertex="1" parent="WcDR3ubEREY4m4XLEgyw-19">
          <mxGeometry width="160" height="160" as="geometry" />
        </mxCell>
        <mxCell id="WcDR3ubEREY4m4XLEgyw-21" value="S&lt;sub&gt;1&lt;/sub&gt;" style="ellipse;whiteSpace=wrap;html=1;aspect=fixed;fillColor=default;gradientColor=none;" vertex="1" parent="WcDR3ubEREY4m4XLEgyw-19">
          <mxGeometry x="8.88888888888889" y="8.88888888888889" width="142.22222222222223" height="142.22222222222223" as="geometry" />
        </mxCell>
        <mxCell id="WcDR3ubEREY4m4XLEgyw-23" value="b" style="edgeStyle=orthogonalEdgeStyle;rounded=0;orthogonalLoop=1;jettySize=auto;html=1;exitX=0;exitY=1;exitDx=0;exitDy=0;entryX=0;entryY=0;entryDx=0;entryDy=0;" edge="1" parent="1" source="WcDR3ubEREY4m4XLEgyw-20" target="WcDR3ubEREY4m4XLEgyw-6">
          <mxGeometry relative="1" as="geometry" />
        </mxCell>
        <mxCell id="WcDR3ubEREY4m4XLEgyw-24" style="edgeStyle=orthogonalEdgeStyle;rounded=0;orthogonalLoop=1;jettySize=auto;html=1;exitX=1;exitY=0;exitDx=0;exitDy=0;entryX=1;entryY=1;entryDx=0;entryDy=0;" edge="1" parent="1" source="WcDR3ubEREY4m4XLEgyw-6" target="WcDR3ubEREY4m4XLEgyw-20">
          <mxGeometry relative="1" as="geometry" />
        </mxCell>
        <mxCell id="WcDR3ubEREY4m4XLEgyw-27" value="a" style="edgeLabel;html=1;align=center;verticalAlign=middle;resizable=0;points=[];" vertex="1" connectable="0" parent="WcDR3ubEREY4m4XLEgyw-24">
          <mxGeometry x="0.0532" y="-1" relative="1" as="geometry">
            <mxPoint as="offset" />
          </mxGeometry>
        </mxCell>
      </root>
    </mxGraphModel>
  </diagram>
</mxfile>
